<svg width="132" height="24" viewBox="0 0 132 24" fill="none" xmlns="http://www.w3.org/2000/svg">
<mask id="mask0_100_267" style="mask-type:alpha" maskUnits="userSpaceOnUse" x="0" y="0" width="132" height="24">
<path fill-rule="evenodd" clip-rule="evenodd" d="M0 23.7961H131.245V0.203552H0V23.7961Z" fill="white"/>
</mask>
<g mask="url(#mask0_100_267)">
<path fill-rule="evenodd" clip-rule="evenodd" d="M37.1078 18.5467C37.5789 18.5467 37.9919 18.5032 38.3418 18.4184C38.6907 18.333 39.0244 18.2152 39.3426 18.064V16.0167H37.9322C37.7977 16.0167 37.6899 15.9793 37.6135 15.9056C37.5353 15.828 37.4957 15.7365 37.4957 15.6277V14.4422H41.2436V18.9983C40.9562 19.2076 40.6592 19.3862 40.3517 19.5408C40.0425 19.6926 39.7132 19.8221 39.3621 19.9181C39.011 20.0163 38.6337 20.0917 38.2369 20.1402C37.8384 20.1893 37.4064 20.2133 36.942 20.2133C36.1221 20.2133 35.3681 20.0716 34.6771 19.7864C33.9856 19.4995 33.3883 19.1038 32.8827 18.5925C32.3809 18.0868 31.9885 17.4773 31.705 16.7719C31.4215 16.068 31.2814 15.295 31.2814 14.4589C31.2814 13.6117 31.4198 12.8336 31.6944 12.1293C31.969 11.4215 32.3591 10.8143 32.867 10.3064C33.371 9.79735 33.9856 9.40274 34.7072 9.12256C35.4289 8.84126 36.241 8.70172 37.1363 8.70172C38.0561 8.70172 38.852 8.83902 39.5257 9.11195C40.1982 9.38433 40.7664 9.73874 41.2341 10.1747L40.6269 11.124C40.5091 11.316 40.3517 11.412 40.1513 11.412C40.0252 11.412 39.9007 11.3719 39.7718 11.2876C39.6043 11.1882 39.4341 11.0917 39.2617 10.9934C39.0875 10.893 38.8955 10.8081 38.6817 10.735C38.4747 10.6619 38.2369 10.6022 37.9757 10.5553C37.7139 10.5084 37.412 10.4878 37.0665 10.4878C36.5106 10.4878 36.0088 10.5793 35.559 10.7668C35.1108 10.9521 34.729 11.2189 34.4131 11.5689C34.095 11.9166 33.8505 12.333 33.678 12.8213C33.5083 13.3097 33.423 13.855 33.423 14.4589C33.423 15.1075 33.515 15.6863 33.6959 16.1942C33.8767 16.696 34.1318 17.1263 34.4589 17.4729C34.7882 17.8206 35.1761 18.0868 35.6265 18.271C36.0786 18.4552 36.5737 18.5467 37.1078 18.5467Z" fill="black"/>
<path fill-rule="evenodd" clip-rule="evenodd" d="M42.9769 20.0893V12.099H44.106C44.3025 12.099 44.4398 12.1347 44.5185 12.2078C44.5966 12.2798 44.6491 12.4048 44.6753 12.5807L44.7909 13.5485C45.0766 13.0545 45.4121 12.6633 45.7939 12.3781C46.1795 12.0923 46.6115 11.9494 47.0887 11.9494C47.4833 11.9494 47.8093 12.0409 48.0722 12.2218L47.8205 13.664C47.8037 13.7578 47.7713 13.822 47.7211 13.8627C47.6664 13.9018 47.5989 13.9191 47.5096 13.9191C47.4309 13.9191 47.3243 13.9029 47.1914 13.8672C47.0541 13.8287 46.8761 13.8125 46.6528 13.8125C46.2538 13.8125 45.9116 13.9224 45.6247 14.1418C45.3379 14.3628 45.0984 14.6865 44.8997 15.1129V20.0893H42.9769Z" fill="black"/>
<path fill-rule="evenodd" clip-rule="evenodd" d="M49.099 20.0895H51.024V12.0992H49.099V20.0895ZM51.3097 9.76895C51.3097 9.93583 51.2779 10.0916 51.2104 10.2378C51.1429 10.3818 51.0547 10.5085 50.9436 10.6196C50.8303 10.7273 50.698 10.8143 50.5501 10.8802C50.3983 10.9444 50.237 10.9768 50.0651 10.9768C49.8993 10.9768 49.7431 10.9444 49.5951 10.8802C49.4467 10.8143 49.3172 10.7273 49.2089 10.6196C49.099 10.5085 49.0152 10.3818 48.9488 10.2378C48.883 10.0916 48.8506 9.93583 48.8506 9.76895C48.8506 9.59704 48.883 9.43686 48.9488 9.28951C49.0152 9.13602 49.099 9.00597 49.2089 8.89602C49.3172 8.78718 49.4467 8.69955 49.5951 8.63425C49.7431 8.56895 49.8993 8.53937 50.0651 8.53937C50.237 8.53937 50.3983 8.56895 50.5501 8.63425C50.698 8.69955 50.8303 8.78718 50.9436 8.89602C51.0547 9.00597 51.1429 9.13602 51.2104 9.28951C51.2779 9.43686 51.3097 9.59704 51.3097 9.76895Z" fill="black"/>
<path fill-rule="evenodd" clip-rule="evenodd" d="M56.0016 18.6798C56.4007 18.6798 56.7406 18.5983 57.0197 18.4303C57.301 18.2656 57.565 18.0301 57.8156 17.7203V14.1393C57.5974 13.8748 57.3601 13.6861 57.1017 13.5778C56.8455 13.4679 56.5676 13.4143 56.2695 13.4143C55.9799 13.4143 55.7181 13.4679 55.4826 13.5778C55.2454 13.6861 55.0467 13.8508 54.8809 14.0718C54.7174 14.2956 54.5934 14.5735 54.5036 14.9146C54.4176 15.2545 54.3707 15.6547 54.3707 16.1179C54.3707 16.5856 54.4098 16.9802 54.4841 17.304C54.5605 17.6322 54.6682 17.8939 54.8067 18.0988C54.9462 18.3047 55.1187 18.4532 55.3213 18.5436C55.5244 18.6329 55.751 18.6798 56.0016 18.6798ZM58.5635 20.0891C58.3129 20.0891 58.1516 19.9747 58.0729 19.738L57.9138 18.9678C57.7481 19.1531 57.5756 19.325 57.3925 19.4746C57.2117 19.6236 57.0152 19.7536 56.8081 19.8625C56.5966 19.9747 56.3678 20.0567 56.1283 20.1187C55.8883 20.1767 55.6266 20.2046 55.3453 20.2046C54.9094 20.2046 54.5092 20.1164 54.1453 19.9356C53.7819 19.7536 53.4682 19.4874 53.2065 19.1442C52.9447 18.7976 52.7421 18.3722 52.6003 17.861C52.4563 17.3531 52.3849 16.7721 52.3849 16.1179C52.3849 15.5252 52.4653 14.9754 52.6266 14.4686C52.7879 13.9585 53.0178 13.5159 53.3198 13.1442C53.6184 12.768 53.9828 12.4749 54.4014 12.2645C54.8223 12.0575 55.2939 11.9492 55.8208 11.9492C56.2679 11.9492 56.6491 12.0223 56.9633 12.1629C57.2814 12.3081 57.565 12.4978 57.8156 12.7367V8.5155H59.7361V20.0891H58.5635Z" fill="black"/>
<path fill-rule="evenodd" clip-rule="evenodd" d="M73.5831 14.4567C73.5831 13.8388 73.5005 13.2835 73.3325 12.7929C73.169 12.3039 72.9312 11.8881 72.6237 11.5471C72.3183 11.2072 71.9466 10.9454 71.5074 10.7668C71.067 10.5849 70.5742 10.4928 70.0227 10.4928H67.8337V18.4217H70.0227C70.5742 18.4217 71.067 18.3307 71.5074 18.1499C71.9466 17.9668 72.3183 17.705 72.6237 17.3651C72.9312 17.028 73.169 16.6094 73.3325 16.1194C73.5005 15.6293 73.5831 15.0745 73.5831 14.4567ZM75.723 14.4567C75.723 15.2827 75.5846 16.0407 75.3122 16.7316C75.037 17.4215 74.6491 18.0182 74.153 18.5149C73.654 19.0155 73.0534 19.4012 72.3513 19.6758C71.6491 19.951 70.8733 20.0894 70.0227 20.0894H65.7245V8.82727H70.0227C70.8733 8.82727 71.6491 8.96569 72.3513 9.24253C73.0534 9.5216 73.654 9.90783 74.153 10.4035C74.6491 10.8996 75.037 11.4935 75.3122 12.1817C75.5846 12.8738 75.723 13.6312 75.723 14.4567Z" fill="black"/>
<path fill-rule="evenodd" clip-rule="evenodd" d="M80.017 22.2848C79.9601 22.421 79.8842 22.5226 79.7926 22.5935C79.7039 22.6621 79.5638 22.7001 79.3779 22.7001H77.9435L79.4393 19.4952L76.2083 12.0977H77.8888C78.0462 12.0977 78.164 12.1328 78.2466 12.2054C78.3314 12.2796 78.3928 12.3617 78.4341 12.4565L80.1415 16.5985C80.1978 16.7352 80.2458 16.8759 80.2894 17.0182C80.3301 17.1656 80.3681 17.3107 80.3965 17.458C80.4401 17.304 80.4836 17.16 80.5349 17.0182C80.5841 16.8798 80.6337 16.7364 80.694 16.5912L82.2987 12.4565C82.3389 12.3516 82.4086 12.2679 82.5069 12.197C82.6006 12.1317 82.7095 12.0977 82.8272 12.0977H84.371L80.017 22.2848Z" fill="black"/>
<path fill-rule="evenodd" clip-rule="evenodd" d="M85.269 20.0893V12.0979H86.4439C86.6951 12.0979 86.8609 12.2134 86.9345 12.4467L87.0702 13.0785C87.2292 12.9144 87.3989 12.7604 87.5781 12.6286C87.7578 12.4913 87.9464 12.3769 88.1468 12.2753C88.3477 12.1782 88.5593 12.1029 88.7881 12.0521C89.0169 11.9974 89.2676 11.9734 89.5377 11.9734C89.9742 11.9734 90.3598 12.0465 90.6981 12.1944C91.0357 12.3429 91.317 12.5499 91.5436 12.8173C91.7686 13.0874 91.9405 13.4056 92.0571 13.7773C92.1738 14.1473 92.2329 14.5559 92.2329 15.0041V20.0893H90.3096V15.0041C90.3096 14.5146 90.1963 14.1362 89.9697 13.8688C89.7453 13.602 89.4049 13.4681 88.9539 13.4681C88.6212 13.4681 88.3081 13.544 88.0196 13.6925C87.7282 13.8448 87.4536 14.0502 87.1918 14.3098V20.0893H85.269Z" fill="black"/>
<path fill-rule="evenodd" clip-rule="evenodd" d="M96.3382 18.8891C96.5346 18.8891 96.7177 18.8729 96.8835 18.8366C97.0487 18.7998 97.2061 18.7462 97.354 18.6731C97.5025 18.6033 97.6465 18.514 97.7838 18.4107C97.9211 18.3047 98.0606 18.1825 98.1979 18.0379V16.7012C97.6375 16.7012 97.1709 16.7352 96.7936 16.8072C96.4191 16.877 96.116 16.9663 95.8866 17.0785C95.6578 17.1873 95.4965 17.3151 95.4005 17.4619C95.3045 17.6081 95.2571 17.7672 95.2571 17.9386C95.2571 18.2796 95.3558 18.524 95.5557 18.6708C95.7549 18.8159 96.0167 18.8891 96.3382 18.8891ZM100.079 20.0891H99.2126C99.0284 20.0891 98.8889 20.0623 98.7845 20.0076C98.6796 19.9518 98.6037 19.8418 98.549 19.676L98.3787 19.1073C98.1761 19.2893 97.9797 19.4506 97.7838 19.5856C97.5895 19.7252 97.3869 19.8385 97.1798 19.9356C96.9717 20.0271 96.7501 20.0958 96.519 20.1426C96.2835 20.1895 96.0245 20.2135 95.7387 20.2135C95.4005 20.2135 95.0891 20.1678 94.8055 20.0762C94.5198 19.9836 94.2714 19.8496 94.0665 19.6666C93.8634 19.4829 93.7021 19.2574 93.5888 18.9862C93.4732 18.7155 93.4169 18.4007 93.4169 18.0401C93.4169 17.7399 93.4972 17.4401 93.6541 17.1438C93.8154 16.8519 94.0749 16.5856 94.4466 16.3479C94.8161 16.1112 95.3045 15.9153 95.9196 15.7596C96.5324 15.6033 97.2898 15.524 98.1979 15.524V15.0541C98.1979 14.5144 98.0846 14.1164 97.8619 13.8569C97.6353 13.5968 97.306 13.4679 96.8745 13.4679C96.5648 13.4679 96.3052 13.5053 96.0982 13.5778C95.8889 13.6509 95.7091 13.7319 95.5557 13.8223C95.4005 13.9138 95.261 13.9942 95.1326 14.0684C95.0014 14.1404 94.8569 14.1795 94.7028 14.1795C94.5711 14.1795 94.4611 14.1415 94.3696 14.0762C94.2736 14.0098 94.1994 13.9255 94.1425 13.8267L93.7919 13.2117C94.7118 12.37 95.8191 11.9492 97.1168 11.9492C97.5828 11.9492 98.0014 12.0256 98.3681 12.1797C98.7365 12.332 99.0463 12.5447 99.2969 12.8171C99.5519 13.0928 99.7439 13.4143 99.879 13.7972C100.012 14.1745 100.079 14.5897 100.079 15.0429V20.0891Z" fill="black"/>
<path fill-rule="evenodd" clip-rule="evenodd" d="M101.763 20.0893V12.0979H102.936C103.186 12.0979 103.348 12.2134 103.426 12.4467L103.553 13.0417C103.69 12.8826 103.838 12.7419 103.993 12.6113C104.146 12.4813 104.308 12.3702 104.481 12.2753C104.656 12.1816 104.841 12.1085 105.042 12.0543C105.244 12.0007 105.462 11.9734 105.7 11.9734C106.204 11.9734 106.62 12.1085 106.945 12.3797C107.27 12.6526 107.512 13.0177 107.671 13.4681C107.798 13.203 107.952 12.9752 108.141 12.7877C108.327 12.5957 108.532 12.4422 108.754 12.3233C108.979 12.2033 109.215 12.1163 109.468 12.0593C109.718 12.0019 109.971 11.9734 110.226 11.9734C110.668 11.9734 111.061 12.0409 111.402 12.176C111.744 12.3094 112.032 12.5086 112.267 12.7682C112.502 13.0266 112.679 13.3447 112.801 13.7176C112.923 14.0915 112.982 14.5196 112.982 15.0041V20.0893H111.061V15.0041C111.061 14.4928 110.948 14.1099 110.725 13.8526C110.501 13.5953 110.174 13.4681 109.742 13.4681C109.546 13.4681 109.363 13.5027 109.195 13.5702C109.025 13.6355 108.877 13.7349 108.75 13.8616C108.624 13.9877 108.523 14.1479 108.451 14.3388C108.375 14.533 108.342 14.7529 108.342 15.0041V20.0893H106.409V15.0041C106.409 14.4688 106.302 14.0776 106.088 13.8342C105.87 13.5892 105.554 13.4681 105.133 13.4681C104.856 13.4681 104.599 13.5379 104.357 13.6752C104.116 13.8125 103.892 14.0011 103.682 14.2389V20.0893H101.763Z" fill="black"/>
<path fill-rule="evenodd" clip-rule="evenodd" d="M114.689 20.0895H116.614V12.0981H114.689V20.0895ZM116.901 9.76673C116.901 9.93585 116.869 10.0916 116.802 10.2345C116.734 10.3818 116.645 10.5085 116.533 10.6162C116.42 10.7273 116.292 10.8121 116.141 10.8769C115.989 10.9422 115.827 10.9745 115.657 10.9745C115.49 10.9745 115.332 10.9422 115.186 10.8769C115.04 10.8121 114.907 10.7273 114.8 10.6162C114.689 10.5085 114.603 10.3818 114.539 10.2345C114.473 10.0916 114.44 9.93585 114.44 9.76673C114.44 9.59706 114.473 9.43576 114.539 9.28506C114.603 9.13604 114.689 9.00599 114.8 8.89604C114.907 8.7872 115.04 8.69957 115.186 8.63427C115.332 8.56897 115.49 8.53827 115.657 8.53827C115.827 8.53827 115.989 8.56897 116.141 8.63427C116.292 8.69957 116.42 8.7872 116.533 8.89604C116.645 9.00599 116.734 9.13604 116.802 9.28506C116.869 9.43576 116.901 9.59706 116.901 9.76673Z" fill="black"/>
<path fill-rule="evenodd" clip-rule="evenodd" d="M124.103 13.7862C124.046 13.8616 123.99 13.9179 123.935 13.9587C123.881 14.0011 123.8 14.0206 123.698 14.0206C123.598 14.0206 123.504 13.9911 123.41 13.9313C123.319 13.8711 123.205 13.8046 123.074 13.7293C122.946 13.6534 122.792 13.587 122.614 13.5267C122.433 13.4659 122.211 13.4352 121.945 13.4352C121.607 13.4352 121.31 13.4982 121.058 13.6193C120.805 13.7416 120.591 13.9179 120.423 14.1451C120.253 14.3739 120.129 14.6519 120.046 14.9756C119.96 15.2993 119.92 15.6688 119.92 16.0774C119.92 16.5016 119.965 16.8856 120.057 17.2138C120.148 17.5481 120.277 17.8272 120.447 18.0532C120.621 18.2798 120.831 18.4495 121.073 18.5656C121.317 18.6811 121.592 18.7408 121.899 18.7408C122.207 18.7408 122.452 18.704 122.643 18.6275C122.833 18.5522 122.992 18.4696 123.12 18.378C123.251 18.2871 123.364 18.2056 123.46 18.1313C123.558 18.0538 123.663 18.018 123.785 18.018C123.938 18.018 124.058 18.0766 124.135 18.1955L124.688 18.8966C124.474 19.1472 124.243 19.3548 123.995 19.5233C123.743 19.6925 123.484 19.8286 123.218 19.9269C122.95 20.0312 122.675 20.1044 122.39 20.1429C122.104 20.1853 121.821 20.2048 121.539 20.2048C121.046 20.2048 120.582 20.1133 120.146 19.9269C119.708 19.7449 119.329 19.4765 119.004 19.1237C118.681 18.7693 118.422 18.3373 118.234 17.8272C118.045 17.3148 117.951 16.7315 117.951 16.0774C117.951 15.4891 118.034 14.9472 118.204 14.4471C118.371 13.9431 118.619 13.5105 118.945 13.1444C119.274 12.7799 119.68 12.4913 120.162 12.2854C120.646 12.0761 121.201 11.9734 121.83 11.9734C122.425 11.9734 122.948 12.0672 123.399 12.2603C123.848 12.4528 124.252 12.7286 124.609 13.0874L124.103 13.7862Z" fill="black"/>
<path fill-rule="evenodd" clip-rule="evenodd" d="M130.722 13.6532C130.669 13.7369 130.615 13.7972 130.558 13.8307C130.499 13.8659 130.43 13.8809 130.34 13.8809C130.246 13.8809 130.146 13.8547 130.039 13.8045C129.932 13.7526 129.812 13.6923 129.668 13.6281C129.529 13.5628 129.37 13.5047 129.191 13.4517C129.01 13.4015 128.801 13.3753 128.557 13.3753C128.177 13.3753 127.878 13.4556 127.661 13.6164C127.445 13.7777 127.334 13.987 127.334 14.2482C127.334 14.4184 127.386 14.5624 127.501 14.6791C127.61 14.7946 127.761 14.8984 127.946 14.9888C128.129 15.0748 128.338 15.1585 128.572 15.2233C128.803 15.2947 129.043 15.3712 129.289 15.4554C129.531 15.5392 129.771 15.6307 130.007 15.7384C130.238 15.8433 130.445 15.9795 130.632 16.1431C130.815 16.3066 130.964 16.5019 131.075 16.7319C131.188 16.9607 131.245 17.2353 131.245 17.5579C131.245 17.9419 131.171 18.2958 131.031 18.6218C130.894 18.946 130.689 19.2251 130.416 19.4623C130.146 19.6979 129.812 19.8843 129.415 20.0154C129.019 20.146 128.563 20.2136 128.051 20.2136C127.776 20.2136 127.506 20.1896 127.244 20.1371C126.98 20.0891 126.73 20.0205 126.487 19.9356C126.245 19.8452 126.021 19.7414 125.818 19.6225C125.617 19.5031 125.435 19.373 125.279 19.2313L125.721 18.499C125.778 18.4108 125.845 18.3438 125.923 18.2969C126.001 18.2489 126.1 18.2249 126.22 18.2249C126.337 18.2249 126.451 18.2612 126.555 18.3276C126.664 18.3963 126.788 18.4694 126.928 18.547C127.07 18.6229 127.233 18.6971 127.423 18.7646C127.61 18.8322 127.85 18.8662 128.145 18.8662C128.371 18.8662 128.565 18.8389 128.731 18.7831C128.895 18.73 129.03 18.6569 129.136 18.5676C129.244 18.4811 129.319 18.3779 129.37 18.2612C129.42 18.1446 129.444 18.0234 129.444 17.9001C129.444 17.7131 129.387 17.5591 129.276 17.4402C129.165 17.3202 129.016 17.2169 128.833 17.1276C128.648 17.0411 128.437 16.9619 128.201 16.8932C127.964 16.8201 127.724 16.7447 127.475 16.6621C127.231 16.5801 126.987 16.4802 126.754 16.3697C126.516 16.2564 126.304 16.1157 126.121 15.9449C125.938 15.7736 125.791 15.5632 125.68 15.3137C125.564 15.0636 125.51 14.765 125.51 14.4117C125.51 14.0835 125.575 13.7721 125.705 13.4757C125.833 13.1799 126.025 12.922 126.278 12.7005C126.529 12.4806 126.843 12.3036 127.22 12.173C127.597 12.0379 128.031 11.9732 128.526 11.9732C129.076 11.9732 129.575 12.0625 130.028 12.245C130.478 12.427 130.854 12.667 131.157 12.9622L130.722 13.6532Z" fill="black"/>
<path fill-rule="evenodd" clip-rule="evenodd" d="M23.6805 12.3707C22.4175 6.38916 15.7421 0.760882 11.1637 0.242371V0.242929C10.792 0.479022 10.4828 0.774278 10.2333 1.11921C12.9006 1.36646 15.2292 3.15028 17.9043 6.01465C19.9823 8.24163 21.3721 11.7981 21.7131 15.5454C21.8504 17.0284 21.8214 18.5404 21.611 20.0128C23.7553 17.6636 24.2331 14.9834 23.6805 12.3707Z" fill="#F29100"/>
<path fill-rule="evenodd" clip-rule="evenodd" d="M21.7134 15.5457C21.8507 17.0281 21.8217 18.5401 21.6107 20.0131C19.1738 22.7602 10.7638 24.1193 5.42519 23.7308V23.7286C4.61868 22.5811 4.20789 21.3141 4.10352 19.9868C10.8871 21.2549 18.1502 19.2043 21.7134 15.5457Z" fill="#EA5B25"/>
<path fill-rule="evenodd" clip-rule="evenodd" d="M16.622 6.94959C18.1876 9.44112 17.8734 13.9319 16.1303 16.5228L15.9076 16.4687C14.7394 15.9719 13.5534 14.8216 12.5186 13.3447C16.0131 9.10568 14.0775 5.88577 11.6317 5.22605C10.9016 5.02679 10.1269 5.05693 9.43652 5.35721C11.7846 4.2387 14.8918 4.38438 16.622 6.94959Z" fill="#1967D2"/>
<path fill-rule="evenodd" clip-rule="evenodd" d="M9.43686 5.35741C10.1267 5.05713 10.9014 5.02644 11.632 5.22625C11.0181 5.80113 10.3751 6.46365 9.73658 7.19369C9.58421 6.5736 9.47649 5.96132 9.41565 5.36746V5.36579C9.42458 5.36244 9.42904 5.35909 9.43686 5.35741Z" fill="#A9AA00"/>
<path fill-rule="evenodd" clip-rule="evenodd" d="M15.9078 16.4685C14.7396 15.9717 13.5536 14.8214 12.5188 13.3446C11.2803 11.5803 10.2561 9.34381 9.73644 7.19386C9.58407 6.57321 9.47635 5.96149 9.41607 5.36707V5.36539C9.24416 3.68763 9.46574 2.17172 10.2332 1.11907C10.4832 0.774137 10.7919 0.478882 11.1636 0.243347V0.24223C9.77942 0.0865095 8.58556 0.395719 7.79412 1.30716H7.79021C7.18965 1.99646 6.8157 3.02846 6.76379 4.46232C6.66668 5.19628 6.59412 6.24279 6.58072 7.44C6.56956 8.60986 6.61979 9.91981 6.76491 11.2303C7.31635 16.1944 9.25365 21.1233 14.5733 18.0486C15.1755 17.6986 15.6979 17.1684 16.1305 16.5232L15.9078 16.4685Z" fill="#4285F4"/>
<path fill-rule="evenodd" clip-rule="evenodd" d="M4.10373 19.9868C3.88103 17.1409 5.06708 14.0192 6.76494 11.2308C6.61982 9.91969 6.56959 8.60973 6.58075 7.44043C3.79173 10.028 0.441216 15.0283 0.0399132 18.7997C-0.169389 20.7655 0.423355 22.3952 2.31991 23.1744C3.11303 23.4574 4.18633 23.6404 5.4254 23.7308V23.7286C4.61833 22.5811 4.20754 21.3141 4.10373 19.9868Z" fill="#A9AA00"/>
</g>
</svg>
