<svg width="153" height="24" viewBox="0 0 153 24" fill="none" xmlns="http://www.w3.org/2000/svg">
<g clip-path="url(#clip0_71_335)">
<path d="M23.8736 8.50365C23.793 8.38185 23.6923 8.2803 23.5916 8.1991C22.1004 7.1231 19.8838 5.6613 17.4657 4.52435C13.5363 2.69712 12.8513 2.61591 9.42565 3.73255C9.4055 3.73255 6.0403 4.8695 6 4.8695L6.96725 5.15375C10.3928 4.82889 17.5262 7.71185 21.113 10.8791C21.4556 11.1836 21.7579 11.3257 22.04 11.3257C22.0803 11.3257 22.1206 11.3257 22.1407 11.3257C22.5639 11.2648 22.8258 10.8791 23.0676 10.4933C23.2087 10.27 23.3498 10.0467 23.5311 9.8639C24.0953 9.39695 23.8938 8.54425 23.8736 8.50365Z" fill="#F09021"/>
<path d="M23.8737 8.4834C23.8737 8.4834 21.3548 10.5949 13.355 11.2852C12.7505 11.3461 12.2064 11.7927 11.9646 12.483C11.7027 13.2139 11.8639 13.9854 12.3475 14.4524C12.7707 14.8584 13.6573 15.0208 14.685 15.0208C16.9217 15.0208 19.9443 14.2899 20.9317 13.7824C24.6797 11.8739 23.9946 8.6052 23.8737 8.4834Z" fill="#E85C26"/>
<path d="M4.85143 5.33645C0.821294 7.3261 0.398133 7.69155 0.277229 7.9758C-0.387743 9.4985 0.236928 10.8791 1.18401 11.5288C1.56687 11.7927 1.96988 11.9145 2.3326 11.9145C2.69531 11.9145 3.03787 11.7724 3.29983 11.5085C9.607 5.03195 12.811 6.2298 13.1737 6.4125C13.1938 6.4125 8.9017 3.32652 4.85143 5.33645Z" fill="#E85C26"/>
<path d="M4.48877 11.3663C1.90948 11.2648 0.57954 7.65095 0.57954 7.65095C0.378032 7.8134 0.196676 7.9961 0.116073 8.28035C-0.166036 9.13305 -0.166036 12.0363 2.89686 13.5996C3.70289 14.0057 4.20666 14.8178 4.22681 15.7314V16.3608C4.22681 18.6753 5.91945 19.3453 8.21665 19.3453V15.8126C8.1965 13.762 7.47105 11.4679 4.48877 11.3663Z" fill="#F09021"/>
<path d="M19.3398 16.3405C16.0351 18.858 6.74566 18.655 4.22681 16.3405C4.22681 16.3405 4.14621 17.1931 4.24696 18.2489C4.36787 19.6294 5.45601 20.5025 6.76581 20.8679C7.67256 21.1116 9.46596 21.3552 11.4408 21.3552C11.5617 21.3552 12.0856 21.3552 12.2065 21.3552C14.1813 21.3552 15.9948 21.1116 16.8814 20.8679C18.2114 20.5025 19.2995 19.6294 19.4003 18.2489C19.501 17.1931 19.3398 16.3405 19.3398 16.3405Z" fill="#E85C26"/>
</g>
<path d="M39.672 18V8.496H36.45V6.264H45.558V8.496H42.336V18H39.672ZM47.172 18V5.382H49.818V8.478L49.692 10.08C50.028 9.78 50.418 9.504 50.862 9.252C51.318 8.988 51.846 8.856 52.446 8.856C53.418 8.856 54.12 9.18 54.552 9.828C54.996 10.464 55.218 11.34 55.218 12.456V18H52.572V12.798C52.572 12.15 52.482 11.706 52.302 11.466C52.134 11.226 51.858 11.106 51.474 11.106C51.138 11.106 50.85 11.184 50.61 11.34C50.37 11.484 50.106 11.694 49.818 11.97V18H47.172ZM57.4552 18V9.072H59.6152L59.7952 10.638H59.8672C60.1912 10.038 60.5812 9.594 61.0372 9.306C61.4932 9.006 61.9492 8.856 62.4052 8.856C62.6572 8.856 62.8672 8.874 63.0352 8.91C63.2032 8.934 63.3472 8.976 63.4672 9.036L63.0352 11.322C62.8792 11.274 62.7232 11.238 62.5672 11.214C62.4232 11.19 62.2552 11.178 62.0632 11.178C61.7272 11.178 61.3732 11.304 61.0012 11.556C60.6412 11.796 60.3412 12.216 60.1012 12.816V18H57.4552ZM68.4473 18.216C67.5953 18.216 66.8273 18.03 66.1433 17.658C65.4593 17.286 64.9193 16.752 64.5233 16.056C64.1273 15.36 63.9293 14.52 63.9293 13.536C63.9293 12.564 64.1273 11.73 64.5233 11.034C64.9313 10.338 65.4593 9.804 66.1073 9.432C66.7553 9.048 67.4333 8.856 68.1413 8.856C68.9933 8.856 69.6953 9.048 70.2473 9.432C70.8113 9.804 71.2313 10.314 71.5073 10.962C71.7953 11.598 71.9393 12.324 71.9393 13.14C71.9393 13.368 71.9273 13.596 71.9033 13.824C71.8793 14.04 71.8553 14.202 71.8313 14.31H66.4853C66.6053 14.958 66.8753 15.438 67.2953 15.75C67.7153 16.05 68.2193 16.2 68.8073 16.2C69.4433 16.2 70.0853 16.002 70.7333 15.606L71.6153 17.208C71.1593 17.52 70.6493 17.766 70.0853 17.946C69.5213 18.126 68.9753 18.216 68.4473 18.216ZM66.4673 12.564H69.6893C69.6893 12.072 69.5693 11.67 69.3293 11.358C69.1013 11.034 68.7233 10.872 68.1953 10.872C67.7873 10.872 67.4213 11.016 67.0973 11.304C66.7733 11.58 66.5633 12 66.4673 12.564ZM75.8243 18.216C75.0083 18.216 74.3603 17.958 73.8803 17.442C73.4003 16.914 73.1603 16.272 73.1603 15.516C73.1603 14.58 73.5563 13.848 74.3483 13.32C75.1403 12.792 76.4183 12.438 78.1823 12.258C78.1583 11.862 78.0383 11.55 77.8223 11.322C77.6183 11.082 77.2703 10.962 76.7783 10.962C76.4063 10.962 76.0283 11.034 75.6443 11.178C75.2603 11.322 74.8523 11.52 74.4203 11.772L73.4663 10.026C74.0303 9.678 74.6303 9.396 75.2663 9.18C75.9143 8.964 76.5863 8.856 77.2823 8.856C78.4223 8.856 79.2983 9.186 79.9103 9.846C80.5223 10.506 80.8283 11.52 80.8283 12.888V18H78.6683L78.4883 17.082H78.4163C78.0443 17.418 77.6423 17.694 77.2103 17.91C76.7903 18.114 76.3283 18.216 75.8243 18.216ZM76.7243 16.164C77.0243 16.164 77.2823 16.098 77.4983 15.966C77.7263 15.822 77.9543 15.636 78.1823 15.408V13.842C77.2463 13.962 76.5983 14.154 76.2383 14.418C75.8783 14.67 75.6983 14.97 75.6983 15.318C75.6983 15.606 75.7883 15.822 75.9683 15.966C76.1603 16.098 76.4123 16.164 76.7243 16.164ZM86.1881 18.216C85.0841 18.216 84.2921 17.898 83.8121 17.262C83.3441 16.626 83.1101 15.792 83.1101 14.76V11.142H81.8861V9.18L83.2541 9.072L83.5601 6.696H85.7561V9.072H87.8981V11.142H85.7561V14.724C85.7561 15.228 85.8581 15.594 86.0621 15.822C86.2781 16.038 86.5601 16.146 86.9081 16.146C87.0521 16.146 87.1961 16.128 87.3401 16.092C87.4961 16.056 87.6341 16.014 87.7541 15.966L88.1681 17.892C87.9401 17.964 87.6581 18.036 87.3221 18.108C86.9981 18.18 86.6201 18.216 86.1881 18.216ZM93.4602 18V6.264H100.804V8.496H96.1062V10.854H100.102V13.068H96.1062V15.768H100.984V18H93.4602ZM105.356 18.216C104.54 18.216 103.892 17.958 103.412 17.442C102.932 16.914 102.692 16.272 102.692 15.516C102.692 14.58 103.088 13.848 103.88 13.32C104.672 12.792 105.95 12.438 107.714 12.258C107.69 11.862 107.57 11.55 107.354 11.322C107.15 11.082 106.802 10.962 106.31 10.962C105.938 10.962 105.56 11.034 105.176 11.178C104.792 11.322 104.384 11.52 103.952 11.772L102.998 10.026C103.562 9.678 104.162 9.396 104.798 9.18C105.446 8.964 106.118 8.856 106.814 8.856C107.954 8.856 108.83 9.186 109.442 9.846C110.054 10.506 110.36 11.52 110.36 12.888V18H108.2L108.02 17.082H107.948C107.576 17.418 107.174 17.694 106.742 17.91C106.322 18.114 105.86 18.216 105.356 18.216ZM106.256 16.164C106.556 16.164 106.814 16.098 107.03 15.966C107.258 15.822 107.486 15.636 107.714 15.408V13.842C106.778 13.962 106.13 14.154 105.77 14.418C105.41 14.67 105.23 14.97 105.23 15.318C105.23 15.606 105.32 15.822 105.5 15.966C105.692 16.098 105.944 16.164 106.256 16.164ZM115.226 18.216C114.638 18.216 114.032 18.102 113.408 17.874C112.796 17.646 112.262 17.346 111.806 16.974L112.994 15.318C113.402 15.618 113.792 15.852 114.164 16.02C114.548 16.176 114.926 16.254 115.298 16.254C115.694 16.254 115.982 16.188 116.162 16.056C116.342 15.912 116.432 15.726 116.432 15.498C116.432 15.294 116.342 15.126 116.162 14.994C115.994 14.862 115.772 14.742 115.496 14.634C115.22 14.514 114.926 14.394 114.614 14.274C114.254 14.13 113.894 13.95 113.534 13.734C113.186 13.518 112.892 13.242 112.652 12.906C112.412 12.558 112.292 12.138 112.292 11.646C112.292 10.818 112.604 10.146 113.228 9.63C113.864 9.114 114.692 8.856 115.712 8.856C116.396 8.856 116.996 8.976 117.512 9.216C118.04 9.444 118.49 9.702 118.862 9.99L117.674 11.574C117.362 11.334 117.05 11.148 116.738 11.016C116.426 10.884 116.114 10.818 115.802 10.818C115.118 10.818 114.776 11.052 114.776 11.52C114.776 11.808 114.944 12.03 115.28 12.186C115.628 12.33 116.03 12.486 116.486 12.654C116.87 12.786 117.242 12.96 117.602 13.176C117.974 13.38 118.28 13.656 118.52 14.004C118.772 14.34 118.898 14.784 118.898 15.336C118.898 16.14 118.586 16.824 117.962 17.388C117.338 17.94 116.426 18.216 115.226 18.216ZM124.574 18.216C123.722 18.216 122.954 18.03 122.27 17.658C121.586 17.286 121.046 16.752 120.65 16.056C120.254 15.36 120.056 14.52 120.056 13.536C120.056 12.564 120.254 11.73 120.65 11.034C121.058 10.338 121.586 9.804 122.234 9.432C122.882 9.048 123.56 8.856 124.268 8.856C125.12 8.856 125.822 9.048 126.374 9.432C126.938 9.804 127.358 10.314 127.634 10.962C127.922 11.598 128.066 12.324 128.066 13.14C128.066 13.368 128.054 13.596 128.03 13.824C128.006 14.04 127.982 14.202 127.958 14.31H122.612C122.732 14.958 123.002 15.438 123.422 15.75C123.842 16.05 124.346 16.2 124.934 16.2C125.57 16.2 126.212 16.002 126.86 15.606L127.742 17.208C127.286 17.52 126.776 17.766 126.212 17.946C125.648 18.126 125.102 18.216 124.574 18.216ZM122.594 12.564H125.816C125.816 12.072 125.696 11.67 125.456 11.358C125.228 11.034 124.85 10.872 124.322 10.872C123.914 10.872 123.548 11.016 123.224 11.304C122.9 11.58 122.69 12 122.594 12.564Z" fill="black"/>
<defs>
<clipPath id="clip0_71_335">
<rect width="24" height="24" fill="white"/>
</clipPath>
</defs>
</svg>
