<svg width="28" height="28" viewBox="0 0 28 28" fill="none" xmlns="http://www.w3.org/2000/svg">
<path d="M14 0C6.26875 0 0 6.26875 0 14C0 21.7313 6.26875 28 14 28C21.7313 28 28 21.7313 28 14C28 6.26875 21.7313 0 14 0ZM14 25.625C7.58125 25.625 2.375 20.4188 2.375 14C2.375 7.58125 7.58125 2.375 14 2.375C20.4188 2.375 25.625 7.58125 25.625 14C25.625 20.4188 20.4188 25.625 14 25.625ZM11.25 9H9.75C9.6125 9 9.5 9.1125 9.5 9.25V18.75C9.5 18.8875 9.6125 19 9.75 19H11.25C11.3875 19 11.5 18.8875 11.5 18.75V9.25C11.5 9.1125 11.3875 9 11.25 9ZM18.25 9H16.75C16.6125 9 16.5 9.1125 16.5 9.25V18.75C16.5 18.8875 16.6125 19 16.75 19H18.25C18.3875 19 18.5 18.8875 18.5 18.75V9.25C18.5 9.1125 18.3875 9 18.25 9Z" fill="#FFB800"/>
</svg>
